<svg width="66" height="66" viewBox="0 0 66 66" fill="none" xmlns="http://www.w3.org/2000/svg">
<g clip-path="url(#clip0_646_12024)">
<path fill-rule="evenodd" clip-rule="evenodd" d="M33 66C51.2231 66 66 51.2267 66 33C66 14.7769 51.2231 0 33 0C14.7769 0 0 14.7769 0 33C0 51.2267 14.7769 66 33 66Z" fill="white"/>
<path d="M65.25 33C65.25 50.8124 50.809 65.25 33 65.25C15.191 65.25 0.75 50.8124 0.75 33C0.75 15.1911 15.1911 0.75 33 0.75C50.8089 0.75 65.25 15.1911 65.25 33Z" stroke="black" stroke-opacity="0.29" stroke-width="1.5" stroke-linecap="round" stroke-linejoin="round"/>
<path d="M35.8711 42.5449L26.2846 32.9997L35.8711 23.4544" stroke="black" stroke-width="4.125" stroke-linecap="round" stroke-linejoin="round"/>
</g>
<defs>
<clipPath id="clip0_646_12024">
<rect width="66" height="66" fill="white"/>
</clipPath>
</defs>
</svg>
