<svg width="100" height="100" viewBox="0 0 100 100" fill="none" xmlns="http://www.w3.org/2000/svg">
<rect width="100" height="100" fill="white"/>
<g opacity="0.3">
<ellipse opacity="0.3" cx="49.4318" cy="91.4062" rx="35.3693" ry="4.6875" fill="url(#paint0_radial_646_11973)"/>
<g style="mix-blend-mode:overlay">
<ellipse cx="49.2189" cy="91.1936" rx="28.3381" ry="1.49148" fill="#02193D"/>
</g>
</g>
<path fill-rule="evenodd" clip-rule="evenodd" d="M15.9863 8.58496L43.0259 36.0378V63.4907L15.9863 90.9436V63.4907V36.0378V8.58496Z" fill="#00FFD1"/>
<mask id="mask0_646_11973" style="mask-type:alpha" maskUnits="userSpaceOnUse" x="15" y="8" width="29" height="83">
<path fill-rule="evenodd" clip-rule="evenodd" d="M15.9863 8.58398L43.0259 36.0369V63.4897L15.9863 90.9426V63.4897V36.0369V8.58398Z" fill="#00E087"/>
</mask>
<g mask="url(#mask0_646_11973)">
<g filter="url(#filter0_f_646_11973)">
<ellipse cx="12.8723" cy="28.5339" rx="14.0354" ry="22.9743" fill="#D4FF79"/>
</g>
</g>
<path d="M16.1502 8.42353L15.7563 8.02355V8.58496V36.0378V63.4907V90.9436V91.505L16.1502 91.105L43.1898 63.6522L43.256 63.585V63.4907V36.0378V35.9436L43.1898 35.8764L16.1502 8.42353Z" stroke="#00967B" stroke-width="0.460104"/>
<path fill-rule="evenodd" clip-rule="evenodd" d="M83.6221 8.58496L56.5825 36.0378V63.4907L83.6221 90.9436V63.4907V36.0378V8.58496Z" fill="#02EEFD"/>
<mask id="mask1_646_11973" style="mask-type:alpha" maskUnits="userSpaceOnUse" x="56" y="8" width="28" height="83">
<path fill-rule="evenodd" clip-rule="evenodd" d="M83.6221 8.58398L56.5825 36.0369V63.4897L83.6221 90.9426V63.4897V36.0369V8.58398Z" fill="#00E087"/>
</mask>
<g mask="url(#mask1_646_11973)">
<g filter="url(#filter1_f_646_11973)">
<ellipse rx="14.8947" ry="31.1171" transform="matrix(-1 0 0 1 91.0692 15.7382)" fill="#7452FF"/>
</g>
<g filter="url(#filter2_f_646_11973)">
<ellipse rx="14.0354" ry="22.9743" transform="matrix(-1 0 0 1 83.6218 96.4841)" fill="#D4FF79"/>
</g>
</g>
<path d="M83.4582 8.42353L83.8521 8.02355V8.58496V36.0378V63.4907V90.9436V91.505L83.4582 91.105L56.4186 63.6522L56.3524 63.585V63.4907V36.0378V35.9436L56.4186 35.8764L83.4582 8.42353Z" stroke="#10A3AC" stroke-width="0.460104"/>
<mask id="mask2_646_11973" style="mask-type:alpha" maskUnits="userSpaceOnUse" x="39" y="39" width="21" height="21">
<circle cx="49.6094" cy="49.6094" r="9.76562" fill="url(#paint1_radial_646_11973)"/>
</mask>
<g mask="url(#mask2_646_11973)">
<circle cx="49.6094" cy="49.6094" r="9.76562" fill="url(#paint2_radial_646_11973)"/>
<g style="mix-blend-mode:overlay">
<circle cx="46.875" cy="46.4844" r="9.76562" fill="url(#paint3_radial_646_11973)"/>
</g>
<g style="mix-blend-mode:overlay">
<circle cx="42.9688" cy="41.0156" r="9.76562" fill="url(#paint4_radial_646_11973)"/>
</g>
</g>
<circle cx="49.6094" cy="49.6094" r="9.96094" stroke="#B164A9" stroke-width="0.390625"/>
<path d="M64.5693 31.3876C64.4951 31.3595 64.4119 31.3945 64.3803 31.4672C64.3486 31.54 64.3796 31.6247 64.4508 31.6598C76.664 37.6857 82.7942 52.953 81.1525 68.2771C80.4823 74.3088 77.9135 79.4498 75.1049 85.0669C75.0946 85.0875 75.0892 85.1102 75.0892 85.1333C75.0892 85.3301 75.0408 85.491 74.9626 85.6604C74.9228 85.7466 74.876 85.8338 74.8232 85.9305L74.8074 85.9594C74.7595 86.0471 74.7077 86.142 74.6559 86.2456C74.6247 86.308 74.6411 86.3836 74.6952 86.4275C74.7494 86.4714 74.8268 86.4718 74.8813 86.4284C82.8672 80.0734 87.0903 73.9959 88.5035 71.3956C88.5126 71.3788 88.5184 71.3603 88.5206 71.3413L88.5215 71.3328C88.9699 67.3535 89.4208 63.3518 88.7446 59.1227C87.8419 52.0185 84.5163 45.2571 80.0658 40.0742L80.0638 40.072C79.1094 39.0036 77.6603 37.9282 76.0328 36.918C74.4033 35.9065 72.5862 34.9549 70.889 34.1362C69.1914 33.3173 67.6119 32.6303 66.4568 32.1481C65.8792 31.907 65.4076 31.7169 65.0803 31.5872C64.9166 31.5223 64.789 31.4725 64.7023 31.4388L64.6033 31.4007L64.578 31.391L64.5715 31.3885L64.5699 31.3879L64.5694 31.3877C64.5693 31.3877 64.5693 31.3876 64.5165 31.5266L64.5693 31.3876ZM73.3521 51.1109C73.3206 51.0425 73.243 51.0084 73.1713 51.0316C73.0997 51.0548 73.0567 51.1279 73.0713 51.2018C74.6316 59.1146 73.0836 71.9924 56.74 84.5071C49.7552 89.1433 40.417 91.2135 31.8027 90.5423C31.7306 90.5367 31.6649 90.5838 31.6471 90.6539C31.6293 90.7239 31.6645 90.7967 31.7306 90.8262C38.0358 93.641 45.1363 95.5012 54.2633 94.3181C54.2786 94.3161 54.2934 94.3118 54.3073 94.3052C59.7146 91.7706 64.3897 88.222 68.1637 83.9974L68.1649 83.9961C74.3077 76.9516 77.1301 68.4921 76.1717 59.8037C76.057 58.2643 75.3481 56.0864 74.6752 54.306C74.3375 53.4124 74.0068 52.614 73.7607 52.039C73.6375 51.7514 73.5355 51.5196 73.4642 51.3596C73.4285 51.2796 73.4006 51.2176 73.3815 51.1755L73.3597 51.1275L73.354 51.1152L73.3526 51.112L73.3522 51.1112L73.3521 51.111L73.2171 51.173L73.3521 51.1109ZM5.70811 54.8637C5.67591 54.8036 5.60701 54.7732 5.54094 54.7898C5.47486 54.8064 5.42854 54.8658 5.42854 54.9339C5.42854 62.8965 9.6615 70.4502 13.3148 75.5649C13.3226 75.5758 13.3318 75.5856 13.3422 75.594C14.5218 76.5489 15.7091 77.4541 17.1248 78.1907C23.4832 81.904 30.0734 84.0459 36.3887 84.2714L36.3887 84.2715H36.394C39.2106 84.2715 42.0291 83.9899 44.8486 83.3132L44.8503 83.3128C50.4396 81.9013 55.6313 78.6273 59.6364 73.6633C59.6395 73.6593 59.6425 73.6552 59.6453 73.651C60.01 73.0899 60.5431 72.2763 60.9851 71.6027C61.0824 71.4545 61.1752 71.3131 61.2608 71.1827C61.3698 71.0167 61.4672 70.8685 61.5473 70.7467L61.7162 70.4898L61.762 70.4202L61.7738 70.4021L61.7769 70.3975L61.7776 70.3963L61.7778 70.3961L61.7779 70.396L61.6537 70.3143L61.7779 70.396C61.8222 70.3286 61.8047 70.2382 61.7385 70.1922C61.6723 70.1462 61.5814 70.1614 61.5338 70.2265C60.3524 71.8407 58.1922 73.154 55.4818 74.1789C52.7756 75.2021 49.5402 75.9306 46.232 76.3874C39.6094 77.3019 32.7302 77.1233 29.2522 76.066L29.2516 76.0658C19.926 73.2737 11.0842 64.8878 5.70811 54.8637ZM39.5374 71.6417C39.6168 71.6417 39.6821 71.5794 39.6859 71.5002C39.6897 71.4209 39.6306 71.3527 39.5516 71.3451C31.8582 70.6084 26.9686 66.3762 23.7735 61.5365C20.6737 56.8412 19.1741 51.5819 18.2663 48.3983C18.2378 48.2981 18.2098 48.2 18.1824 48.104C16.7858 42.2919 16.785 35.749 18.4079 28.7535L18.4079 28.7535L18.4086 28.7502C19.5275 23.3797 21.6534 18.2327 24.6746 13.589C24.7099 13.5347 24.706 13.4637 24.6648 13.4136C24.6236 13.3635 24.5548 13.3459 24.4946 13.3701C18.164 15.9136 13.1963 20.8881 10.1525 29.3432C10.1493 29.3519 10.147 29.3609 10.1456 29.37C9.69462 32.1883 9.69463 34.7804 9.69463 37.5837L9.69457 37.5889L9.69468 37.5931C9.9198 45.5846 11.8334 52.6261 15.1033 58.2639C19.5631 65.9979 27.0724 70.682 36.2663 71.6409C36.2715 71.6414 36.2766 71.6417 36.2817 71.6417H39.5374ZM25.5957 50.79C25.6281 50.8554 25.7032 50.8875 25.7728 50.8659C25.8425 50.8443 25.8862 50.7752 25.8759 50.703C24.6997 42.4439 27.1981 35.5593 29.9945 30.7355C31.3926 28.3238 32.8644 26.4288 33.9863 25.1371C34.5471 24.4913 35.0204 23.9966 35.353 23.6636C35.5193 23.4972 35.6504 23.3712 35.7397 23.287C35.7843 23.245 35.8185 23.2133 35.8414 23.1924L35.8672 23.1689L35.8736 23.1631L35.8743 23.1625L35.8745 23.1622L35.8751 23.1618L35.8754 23.1615L35.8758 23.1612L35.8806 23.1569L35.9002 23.14L35.9777 23.0732C36.0459 23.0145 36.1469 22.9281 36.2776 22.8173C36.5391 22.5958 36.9195 22.2769 37.395 21.8876C38.3462 21.109 39.6774 20.0493 41.1975 18.925C44.2426 16.6727 48.0293 14.1737 51.0366 13.1434C56.5844 11.2603 62.2716 11.2775 68.2126 11.2955C68.7931 11.2972 69.376 11.299 69.9614 11.299H71.8138C71.8827 11.299 71.9426 11.2516 71.9584 11.1845C71.9742 11.1174 71.9419 11.0483 71.8802 11.0175C69.0589 9.6068 60.9036 6.57066 51.7372 5.38972C51.7181 5.38725 51.6987 5.38853 51.6801 5.39349C47.2347 6.57517 43.0108 8.20805 38.7862 10.7992L38.7861 10.7991L38.7827 10.8013C32.6401 14.8025 28.188 20.2127 25.3703 26.0734L25.3702 26.0734L25.3679 26.0788C22.0965 33.6367 22.0941 43.7305 25.5957 50.79ZM88.7735 28.8567C88.7677 28.8488 88.7612 28.8415 88.7539 28.8348C85.4371 25.7991 82.1679 23.4295 78.7227 22.0167C70.4997 18.0191 61.0898 17.0589 53.5859 19.2029L53.585 19.2031C50.3021 20.1654 46.6637 22.5229 43.8547 24.6296C42.4481 25.6846 41.2457 26.6796 40.3948 27.4109C39.9694 27.7766 39.6317 28.0764 39.4002 28.285C39.2845 28.3893 39.1954 28.4708 39.135 28.5262L39.0665 28.5895L39.049 28.6058L39.0445 28.61L39.0434 28.6111L39.043 28.6113C39.043 28.6114 39.0429 28.6115 39.1445 28.7199L39.0429 28.6115C38.9868 28.6641 38.98 28.7508 39.0274 28.8115C39.0748 28.8721 39.1607 28.8865 39.2253 28.8447C53.6411 19.5135 69.4189 22.1168 82.4926 33.3217C85.2886 35.8943 87.8621 38.9152 90.4374 42.89C91.2533 44.1725 91.8222 45.5568 92.418 47.0066C92.6771 47.6371 92.9413 48.28 93.2331 48.9323L93.2329 48.9323L93.2358 48.938C93.344 49.1545 93.4535 49.4414 93.5666 49.7384L93.5687 49.7439C93.6795 50.0346 93.7938 50.3347 93.9094 50.5659C93.9402 50.6275 94.0094 50.6599 94.0765 50.6441C94.1435 50.6282 94.1909 50.5683 94.1909 50.4994V49.7697C94.1909 47.9921 93.9515 44.2917 93.1567 40.2755C92.3625 36.2624 91.0102 31.9144 88.7735 28.8567Z" fill="white"/>
<path d="M64.5693 31.3876C64.4951 31.3595 64.4119 31.3945 64.3803 31.4672C64.3486 31.54 64.3796 31.6247 64.4508 31.6598C76.664 37.6857 82.7942 52.953 81.1525 68.2771C80.4823 74.3088 77.9135 79.4498 75.1049 85.0669C75.0946 85.0875 75.0892 85.1102 75.0892 85.1333C75.0892 85.3301 75.0408 85.491 74.9626 85.6604C74.9228 85.7466 74.876 85.8338 74.8232 85.9305L74.8074 85.9594C74.7595 86.0471 74.7077 86.142 74.6559 86.2456C74.6247 86.308 74.6411 86.3836 74.6952 86.4275C74.7494 86.4714 74.8268 86.4718 74.8813 86.4284C82.8672 80.0734 87.0903 73.9959 88.5035 71.3956C88.5126 71.3788 88.5184 71.3603 88.5206 71.3413L88.5215 71.3328C88.9699 67.3535 89.4208 63.3518 88.7446 59.1227C87.8419 52.0185 84.5163 45.2571 80.0658 40.0742L80.0638 40.072C79.1094 39.0036 77.6603 37.9282 76.0328 36.918C74.4033 35.9065 72.5862 34.9549 70.889 34.1362C69.1914 33.3173 67.6119 32.6303 66.4568 32.1481C65.8792 31.907 65.4076 31.7169 65.0803 31.5872C64.9166 31.5223 64.789 31.4725 64.7023 31.4388L64.6033 31.4007L64.578 31.391L64.5715 31.3885L64.5699 31.3879L64.5694 31.3877C64.5693 31.3877 64.5693 31.3876 64.5165 31.5266L64.5693 31.3876ZM73.3521 51.1109C73.3206 51.0425 73.243 51.0084 73.1713 51.0316C73.0997 51.0548 73.0567 51.1279 73.0713 51.2018C74.6316 59.1146 73.0836 71.9924 56.74 84.5071C49.7552 89.1433 40.417 91.2135 31.8027 90.5423C31.7306 90.5367 31.6649 90.5838 31.6471 90.6539C31.6293 90.7239 31.6645 90.7967 31.7306 90.8262C38.0358 93.641 45.1363 95.5012 54.2633 94.3181C54.2786 94.3161 54.2934 94.3118 54.3073 94.3052C59.7146 91.7706 64.3897 88.222 68.1637 83.9974L68.1649 83.9961C74.3077 76.9516 77.1301 68.4921 76.1717 59.8037C76.057 58.2643 75.3481 56.0864 74.6752 54.306C74.3375 53.4124 74.0068 52.614 73.7607 52.039C73.6375 51.7514 73.5355 51.5196 73.4642 51.3596C73.4285 51.2796 73.4006 51.2176 73.3815 51.1755L73.3597 51.1275L73.354 51.1152L73.3526 51.112L73.3522 51.1112L73.3521 51.111L73.2171 51.173L73.3521 51.1109ZM5.70811 54.8637C5.67591 54.8036 5.60701 54.7732 5.54094 54.7898C5.47486 54.8064 5.42854 54.8658 5.42854 54.9339C5.42854 62.8965 9.6615 70.4502 13.3148 75.5649C13.3226 75.5758 13.3318 75.5856 13.3422 75.594C14.5218 76.5489 15.7091 77.4541 17.1248 78.1907C23.4832 81.904 30.0734 84.0459 36.3887 84.2714L36.3887 84.2715H36.394C39.2106 84.2715 42.0291 83.9899 44.8486 83.3132L44.8503 83.3128C50.4396 81.9013 55.6313 78.6273 59.6364 73.6633C59.6395 73.6593 59.6425 73.6552 59.6453 73.651C60.01 73.0899 60.5431 72.2763 60.9851 71.6027C61.0824 71.4545 61.1752 71.3131 61.2608 71.1827C61.3698 71.0167 61.4672 70.8685 61.5473 70.7467L61.7162 70.4898L61.762 70.4202L61.7738 70.4021L61.7769 70.3975L61.7776 70.3963L61.7778 70.3961L61.7779 70.396L61.6537 70.3143L61.7779 70.396C61.8222 70.3286 61.8047 70.2382 61.7385 70.1922C61.6723 70.1462 61.5814 70.1614 61.5338 70.2265C60.3524 71.8407 58.1922 73.154 55.4818 74.1789C52.7756 75.2021 49.5402 75.9306 46.232 76.3874C39.6094 77.3019 32.7302 77.1233 29.2522 76.066L29.2516 76.0658C19.926 73.2737 11.0842 64.8878 5.70811 54.8637ZM39.5374 71.6417C39.6168 71.6417 39.6821 71.5794 39.6859 71.5002C39.6897 71.4209 39.6306 71.3527 39.5516 71.3451C31.8582 70.6084 26.9686 66.3762 23.7735 61.5365C20.6737 56.8412 19.1741 51.5819 18.2663 48.3983C18.2378 48.2981 18.2098 48.2 18.1824 48.104C16.7858 42.2919 16.785 35.749 18.4079 28.7535L18.4079 28.7535L18.4086 28.7502C19.5275 23.3797 21.6534 18.2327 24.6746 13.589C24.7099 13.5347 24.706 13.4637 24.6648 13.4136C24.6236 13.3635 24.5548 13.3459 24.4946 13.3701C18.164 15.9136 13.1963 20.8881 10.1525 29.3432C10.1493 29.3519 10.147 29.3609 10.1456 29.37C9.69462 32.1883 9.69463 34.7804 9.69463 37.5837L9.69457 37.5889L9.69468 37.5931C9.9198 45.5846 11.8334 52.6261 15.1033 58.2639C19.5631 65.9979 27.0724 70.682 36.2663 71.6409C36.2715 71.6414 36.2766 71.6417 36.2817 71.6417H39.5374ZM25.5957 50.79C25.6281 50.8554 25.7032 50.8875 25.7728 50.8659C25.8425 50.8443 25.8862 50.7752 25.8759 50.703C24.6997 42.4439 27.1981 35.5593 29.9945 30.7355C31.3926 28.3238 32.8644 26.4288 33.9863 25.1371C34.5471 24.4913 35.0204 23.9966 35.353 23.6636C35.5193 23.4972 35.6504 23.3712 35.7397 23.287C35.7843 23.245 35.8185 23.2133 35.8414 23.1924L35.8672 23.1689L35.8736 23.1631L35.8743 23.1625L35.8745 23.1622L35.8751 23.1618L35.8754 23.1615L35.8758 23.1612L35.8806 23.1569L35.9002 23.14L35.9777 23.0732C36.0459 23.0145 36.1469 22.9281 36.2776 22.8173C36.5391 22.5958 36.9195 22.2769 37.395 21.8876C38.3462 21.109 39.6774 20.0493 41.1975 18.925C44.2426 16.6727 48.0293 14.1737 51.0366 13.1434C56.5844 11.2603 62.2716 11.2775 68.2126 11.2955C68.7931 11.2972 69.376 11.299 69.9614 11.299H71.8138C71.8827 11.299 71.9426 11.2516 71.9584 11.1845C71.9742 11.1174 71.9419 11.0483 71.8802 11.0175C69.0589 9.6068 60.9036 6.57066 51.7372 5.38972C51.7181 5.38725 51.6987 5.38853 51.6801 5.39349C47.2347 6.57517 43.0108 8.20805 38.7862 10.7992L38.7861 10.7991L38.7827 10.8013C32.6401 14.8025 28.188 20.2127 25.3703 26.0734L25.3702 26.0734L25.3679 26.0788C22.0965 33.6367 22.0941 43.7305 25.5957 50.79ZM88.7735 28.8567C88.7677 28.8488 88.7612 28.8415 88.7539 28.8348C85.4371 25.7991 82.1679 23.4295 78.7227 22.0167C70.4997 18.0191 61.0898 17.0589 53.5859 19.2029L53.585 19.2031C50.3021 20.1654 46.6637 22.5229 43.8547 24.6296C42.4481 25.6846 41.2457 26.6796 40.3948 27.4109C39.9694 27.7766 39.6317 28.0764 39.4002 28.285C39.2845 28.3893 39.1954 28.4708 39.135 28.5262L39.0665 28.5895L39.049 28.6058L39.0445 28.61L39.0434 28.6111L39.043 28.6113C39.043 28.6114 39.0429 28.6115 39.1445 28.7199L39.0429 28.6115C38.9868 28.6641 38.98 28.7508 39.0274 28.8115C39.0748 28.8721 39.1607 28.8865 39.2253 28.8447C53.6411 19.5135 69.4189 22.1168 82.4926 33.3217C85.2886 35.8943 87.8621 38.9152 90.4374 42.89C91.2533 44.1725 91.8222 45.5568 92.418 47.0066C92.6771 47.6371 92.9413 48.28 93.2331 48.9323L93.2329 48.9323L93.2358 48.938C93.344 49.1545 93.4535 49.4414 93.5666 49.7384L93.5687 49.7439C93.6795 50.0346 93.7938 50.3347 93.9094 50.5659C93.9402 50.6275 94.0094 50.6599 94.0765 50.6441C94.1435 50.6282 94.1909 50.5683 94.1909 50.4994V49.7697C94.1909 47.9921 93.9515 44.2917 93.1567 40.2755C92.3625 36.2624 91.0102 31.9144 88.7735 28.8567Z" fill="url(#paint5_radial_646_11973)"/>
<path d="M64.5693 31.3876C64.4951 31.3595 64.4119 31.3945 64.3803 31.4672C64.3486 31.54 64.3796 31.6247 64.4508 31.6598C76.664 37.6857 82.7942 52.953 81.1525 68.2771C80.4823 74.3088 77.9135 79.4498 75.1049 85.0669C75.0946 85.0875 75.0892 85.1102 75.0892 85.1333C75.0892 85.3301 75.0408 85.491 74.9626 85.6604C74.9228 85.7466 74.876 85.8338 74.8232 85.9305L74.8074 85.9594C74.7595 86.0471 74.7077 86.142 74.6559 86.2456C74.6247 86.308 74.6411 86.3836 74.6952 86.4275C74.7494 86.4714 74.8268 86.4718 74.8813 86.4284C82.8672 80.0734 87.0903 73.9959 88.5035 71.3956C88.5126 71.3788 88.5184 71.3603 88.5206 71.3413L88.5215 71.3328C88.9699 67.3535 89.4208 63.3518 88.7446 59.1227C87.8419 52.0185 84.5163 45.2571 80.0658 40.0742L80.0638 40.072C79.1094 39.0036 77.6603 37.9282 76.0328 36.918C74.4033 35.9065 72.5862 34.9549 70.889 34.1362C69.1914 33.3173 67.6119 32.6303 66.4568 32.1481C65.8792 31.907 65.4076 31.7169 65.0803 31.5872C64.9166 31.5223 64.789 31.4725 64.7023 31.4388L64.6033 31.4007L64.578 31.391L64.5715 31.3885L64.5699 31.3879L64.5694 31.3877C64.5693 31.3877 64.5693 31.3876 64.5165 31.5266L64.5693 31.3876ZM73.3521 51.1109C73.3206 51.0425 73.243 51.0084 73.1713 51.0316C73.0997 51.0548 73.0567 51.1279 73.0713 51.2018C74.6316 59.1146 73.0836 71.9924 56.74 84.5071C49.7552 89.1433 40.417 91.2135 31.8027 90.5423C31.7306 90.5367 31.6649 90.5838 31.6471 90.6539C31.6293 90.7239 31.6645 90.7967 31.7306 90.8262C38.0358 93.641 45.1363 95.5012 54.2633 94.3181C54.2786 94.3161 54.2934 94.3118 54.3073 94.3052C59.7146 91.7706 64.3897 88.222 68.1637 83.9974L68.1649 83.9961C74.3077 76.9516 77.1301 68.4921 76.1717 59.8037C76.057 58.2643 75.3481 56.0864 74.6752 54.306C74.3375 53.4124 74.0068 52.614 73.7607 52.039C73.6375 51.7514 73.5355 51.5196 73.4642 51.3596C73.4285 51.2796 73.4006 51.2176 73.3815 51.1755L73.3597 51.1275L73.354 51.1152L73.3526 51.112L73.3522 51.1112L73.3521 51.111L73.2171 51.173L73.3521 51.1109ZM5.70811 54.8637C5.67591 54.8036 5.60701 54.7732 5.54094 54.7898C5.47486 54.8064 5.42854 54.8658 5.42854 54.9339C5.42854 62.8965 9.6615 70.4502 13.3148 75.5649C13.3226 75.5758 13.3318 75.5856 13.3422 75.594C14.5218 76.5489 15.7091 77.4541 17.1248 78.1907C23.4832 81.904 30.0734 84.0459 36.3887 84.2714L36.3887 84.2715H36.394C39.2106 84.2715 42.0291 83.9899 44.8486 83.3132L44.8503 83.3128C50.4396 81.9013 55.6313 78.6273 59.6364 73.6633C59.6395 73.6593 59.6425 73.6552 59.6453 73.651C60.01 73.0899 60.5431 72.2763 60.9851 71.6027C61.0824 71.4545 61.1752 71.3131 61.2608 71.1827C61.3698 71.0167 61.4672 70.8685 61.5473 70.7467L61.7162 70.4898L61.762 70.4202L61.7738 70.4021L61.7769 70.3975L61.7776 70.3963L61.7778 70.3961L61.7779 70.396L61.6537 70.3143L61.7779 70.396C61.8222 70.3286 61.8047 70.2382 61.7385 70.1922C61.6723 70.1462 61.5814 70.1614 61.5338 70.2265C60.3524 71.8407 58.1922 73.154 55.4818 74.1789C52.7756 75.2021 49.5402 75.9306 46.232 76.3874C39.6094 77.3019 32.7302 77.1233 29.2522 76.066L29.2516 76.0658C19.926 73.2737 11.0842 64.8878 5.70811 54.8637ZM39.5374 71.6417C39.6168 71.6417 39.6821 71.5794 39.6859 71.5002C39.6897 71.4209 39.6306 71.3527 39.5516 71.3451C31.8582 70.6084 26.9686 66.3762 23.7735 61.5365C20.6737 56.8412 19.1741 51.5819 18.2663 48.3983C18.2378 48.2981 18.2098 48.2 18.1824 48.104C16.7858 42.2919 16.785 35.749 18.4079 28.7535L18.4079 28.7535L18.4086 28.7502C19.5275 23.3797 21.6534 18.2327 24.6746 13.589C24.7099 13.5347 24.706 13.4637 24.6648 13.4136C24.6236 13.3635 24.5548 13.3459 24.4946 13.3701C18.164 15.9136 13.1963 20.8881 10.1525 29.3432C10.1493 29.3519 10.147 29.3609 10.1456 29.37C9.69462 32.1883 9.69463 34.7804 9.69463 37.5837L9.69457 37.5889L9.69468 37.5931C9.9198 45.5846 11.8334 52.6261 15.1033 58.2639C19.5631 65.9979 27.0724 70.682 36.2663 71.6409C36.2715 71.6414 36.2766 71.6417 36.2817 71.6417H39.5374ZM25.5957 50.79C25.6281 50.8554 25.7032 50.8875 25.7728 50.8659C25.8425 50.8443 25.8862 50.7752 25.8759 50.703C24.6997 42.4439 27.1981 35.5593 29.9945 30.7355C31.3926 28.3238 32.8644 26.4288 33.9863 25.1371C34.5471 24.4913 35.0204 23.9966 35.353 23.6636C35.5193 23.4972 35.6504 23.3712 35.7397 23.287C35.7843 23.245 35.8185 23.2133 35.8414 23.1924L35.8672 23.1689L35.8736 23.1631L35.8743 23.1625L35.8745 23.1622L35.8751 23.1618L35.8754 23.1615L35.8758 23.1612L35.8806 23.1569L35.9002 23.14L35.9777 23.0732C36.0459 23.0145 36.1469 22.9281 36.2776 22.8173C36.5391 22.5958 36.9195 22.2769 37.395 21.8876C38.3462 21.109 39.6774 20.0493 41.1975 18.925C44.2426 16.6727 48.0293 14.1737 51.0366 13.1434C56.5844 11.2603 62.2716 11.2775 68.2126 11.2955C68.7931 11.2972 69.376 11.299 69.9614 11.299H71.8138C71.8827 11.299 71.9426 11.2516 71.9584 11.1845C71.9742 11.1174 71.9419 11.0483 71.8802 11.0175C69.0589 9.6068 60.9036 6.57066 51.7372 5.38972C51.7181 5.38725 51.6987 5.38853 51.6801 5.39349C47.2347 6.57517 43.0108 8.20805 38.7862 10.7992L38.7861 10.7991L38.7827 10.8013C32.6401 14.8025 28.188 20.2127 25.3703 26.0734L25.3702 26.0734L25.3679 26.0788C22.0965 33.6367 22.0941 43.7305 25.5957 50.79ZM88.7735 28.8567C88.7677 28.8488 88.7612 28.8415 88.7539 28.8348C85.4371 25.7991 82.1679 23.4295 78.7227 22.0167C70.4997 18.0191 61.0898 17.0589 53.5859 19.2029L53.585 19.2031C50.3021 20.1654 46.6637 22.5229 43.8547 24.6296C42.4481 25.6846 41.2457 26.6796 40.3948 27.4109C39.9694 27.7766 39.6317 28.0764 39.4002 28.285C39.2845 28.3893 39.1954 28.4708 39.135 28.5262L39.0665 28.5895L39.049 28.6058L39.0445 28.61L39.0434 28.6111L39.043 28.6113C39.043 28.6114 39.0429 28.6115 39.1445 28.7199L39.0429 28.6115C38.9868 28.6641 38.98 28.7508 39.0274 28.8115C39.0748 28.8721 39.1607 28.8865 39.2253 28.8447C53.6411 19.5135 69.4189 22.1168 82.4926 33.3217C85.2886 35.8943 87.8621 38.9152 90.4374 42.89C91.2533 44.1725 91.8222 45.5568 92.418 47.0066C92.6771 47.6371 92.9413 48.28 93.2331 48.9323L93.2329 48.9323L93.2358 48.938C93.344 49.1545 93.4535 49.4414 93.5666 49.7384L93.5687 49.7439C93.6795 50.0346 93.7938 50.3347 93.9094 50.5659C93.9402 50.6275 94.0094 50.6599 94.0765 50.6441C94.1435 50.6282 94.1909 50.5683 94.1909 50.4994V49.7697C94.1909 47.9921 93.9515 44.2917 93.1567 40.2755C92.3625 36.2624 91.0102 31.9144 88.7735 28.8567Z" stroke="#72BBAE" stroke-width="0.297221" stroke-linejoin="round"/>
<defs>
<filter id="filter0_f_646_11973" x="-14.7349" y="-8.01221" width="55.2139" height="73.0918" filterUnits="userSpaceOnUse" color-interpolation-filters="sRGB">
<feFlood flood-opacity="0" result="BackgroundImageFix"/>
<feBlend mode="normal" in="SourceGraphic" in2="BackgroundImageFix" result="shape"/>
<feGaussianBlur stdDeviation="6.78589" result="effect1_foregroundBlur_646_11973"/>
</filter>
<filter id="filter1_f_646_11973" x="62.603" y="-28.9507" width="56.9326" height="89.3779" filterUnits="userSpaceOnUse" color-interpolation-filters="sRGB">
<feFlood flood-opacity="0" result="BackgroundImageFix"/>
<feBlend mode="normal" in="SourceGraphic" in2="BackgroundImageFix" result="shape"/>
<feGaussianBlur stdDeviation="6.78589" result="effect1_foregroundBlur_646_11973"/>
</filter>
<filter id="filter2_f_646_11973" x="56.0151" y="59.938" width="55.2139" height="73.0918" filterUnits="userSpaceOnUse" color-interpolation-filters="sRGB">
<feFlood flood-opacity="0" result="BackgroundImageFix"/>
<feBlend mode="normal" in="SourceGraphic" in2="BackgroundImageFix" result="shape"/>
<feGaussianBlur stdDeviation="6.78589" result="effect1_foregroundBlur_646_11973"/>
</filter>
<radialGradient id="paint0_radial_646_11973" cx="0" cy="0" r="1" gradientUnits="userSpaceOnUse" gradientTransform="translate(46.875 88.3301) rotate(15.1046) scale(29.7935 385.179)">
<stop stop-color="#1EFB64"/>
<stop offset="1" stop-color="#1CAFFD"/>
</radialGradient>
<radialGradient id="paint1_radial_646_11973" cx="0" cy="0" r="1" gradientUnits="userSpaceOnUse" gradientTransform="translate(40.8203 39.8438) rotate(47.5306) scale(26.5506 21.5695)">
<stop stop-color="#FFBEF9"/>
<stop offset="1" stop-color="#FF6ABB"/>
</radialGradient>
<radialGradient id="paint2_radial_646_11973" cx="0" cy="0" r="1" gradientUnits="userSpaceOnUse" gradientTransform="translate(40.8203 39.8438) rotate(47.5306) scale(26.5506 21.5695)">
<stop stop-color="#FFBEF9"/>
<stop offset="1" stop-color="#F43DC1"/>
</radialGradient>
<radialGradient id="paint3_radial_646_11973" cx="0" cy="0" r="1" gradientUnits="userSpaceOnUse" gradientTransform="translate(38.0859 36.7188) rotate(47.5306) scale(26.5506 21.5695)">
<stop stop-color="#FF7DF2"/>
<stop offset="1" stop-color="#FFB4DC"/>
</radialGradient>
<radialGradient id="paint4_radial_646_11973" cx="0" cy="0" r="1" gradientUnits="userSpaceOnUse" gradientTransform="translate(34.1797 31.25) rotate(47.5306) scale(26.5506 21.5695)">
<stop stop-color="#FF7DF2"/>
<stop offset="1" stop-color="#FFB4DC"/>
</radialGradient>
<radialGradient id="paint5_radial_646_11973" cx="0" cy="0" r="1" gradientUnits="userSpaceOnUse" gradientTransform="translate(61.1667 57.7293) rotate(-135.798) scale(66.7033 98.5968)">
<stop stop-color="#F3FFCF" stop-opacity="0.11"/>
<stop offset="1" stop-color="#77FFA5" stop-opacity="0.42"/>
</radialGradient>
</defs>
</svg>
