<svg width="100" height="100" viewBox="0 0 100 100" fill="none" xmlns="http://www.w3.org/2000/svg">
<rect width="100" height="100" fill="white"/>
<ellipse opacity="0.3" cx="50.3906" cy="92.5781" rx="32.4219" ry="4.29688" fill="url(#paint0_radial_646_11978)"/>
<g style="mix-blend-mode:overlay">
<ellipse cx="50.1953" cy="92.3828" rx="25.9766" ry="1.36719" fill="#02193D"/>
</g>
<rect x="31.0438" y="19.9129" width="37.5984" height="67.3743" fill="white"/>
<rect x="31.0438" y="19.9129" width="37.5984" height="67.3743" fill="url(#paint1_radial_646_11978)"/>
<rect x="31.0438" y="19.9129" width="37.5984" height="67.3743" stroke="#72BBAE" stroke-width="0.252338"/>
<path d="M46.6557 57.6595L40.2789 59.3681C39.4463 59.5912 38.6487 58.9117 38.7366 58.0549L40.6165 39.7249C40.642 39.4769 40.7421 39.2425 40.9038 39.0528C41.0654 38.863 41.2809 38.7268 41.5217 38.6622L52.2142 35.7972C53.0578 35.5711 53.862 36.2718 53.7529 37.1386L52.49 47.1831L59.4356 45.322C60.4571 45.0483 61.3247 46.1063 60.8567 47.0544L49.0269 71.0212C48.4519 72.1864 46.6981 71.7802 46.6942 70.4809L46.6557 57.6595Z" fill="url(#paint2_radial_646_11978)"/>
<path d="M46.7819 57.6591L46.7814 57.4952L46.623 57.5376L40.2462 59.2463C39.499 59.4465 38.7832 58.8367 38.8621 58.0677L38.7366 58.0549L38.8621 58.0677L40.742 39.7378L40.6165 39.7249L40.742 39.7378C40.7649 39.5153 40.8548 39.3049 40.9998 39.1346C41.1449 38.9643 41.3383 38.842 41.5543 38.7841C41.5543 38.7841 41.5544 38.7841 41.5544 38.7841L52.2468 35.9191C53.004 35.7162 53.7256 36.345 53.6277 37.1228L53.7529 37.1386L53.6277 37.1228L52.3648 47.1673L52.3414 47.3535L52.5226 47.3049L59.4682 45.4439C60.3849 45.1982 61.1636 46.1477 60.7435 46.9986L60.8567 47.0544L60.7435 46.9986L48.9138 70.9653L49.0269 71.0212L48.9138 70.9653C48.3977 72.0112 46.8239 71.6464 46.8204 70.4806L46.6942 70.4809L46.8204 70.4806L46.7819 57.6591Z" stroke="#009962" stroke-opacity="0.58" stroke-width="0.252338"/>
<path d="M59.9255 73.9732L58.1518 74.4484C57.9203 74.5105 57.6984 74.3215 57.7229 74.0831L58.2458 68.9847C58.2528 68.9157 58.2807 68.8505 58.3257 68.7977C58.3706 68.745 58.4306 68.7071 58.4975 68.6891L61.4716 67.8922C61.7063 67.8293 61.93 68.0242 61.8996 68.2653L61.5483 71.0592L63.4802 70.5415C63.7644 70.4654 64.0057 70.7597 63.8755 71.0234L60.5851 77.6897C60.4252 78.0138 59.9373 77.9008 59.9363 77.5394L59.9255 73.9732Z" fill="url(#paint3_radial_646_11978)"/>
<path d="M60.0517 73.9728L60.0512 73.8089L59.8929 73.8513L58.1192 74.3266C57.9729 74.3657 57.8329 74.2464 57.8484 74.096L57.8484 74.096L58.3713 68.9976L58.3713 68.9976C58.3757 68.954 58.3933 68.9129 58.4217 68.8796C58.4501 68.8462 58.4879 68.8223 58.5302 68.811C58.5302 68.811 58.5302 68.811 58.5302 68.811L61.5043 68.0141C61.6524 67.9744 61.7936 68.0974 61.7744 68.2496L61.7744 68.2496L61.4232 71.0434L61.3997 71.2296L61.581 71.181L63.5129 70.6634C63.6922 70.6153 63.8446 70.8011 63.7624 70.9675L63.7624 70.9676L60.472 77.6339L60.472 77.6339C60.371 77.8385 60.0631 77.7671 60.0624 77.5391L59.9363 77.5394L60.0624 77.5391L60.0517 73.9728Z" stroke="#63CAA5" stroke-opacity="0.58" stroke-width="0.252338"/>
<g style="mix-blend-mode:multiply">
<rect x="31.1699" y="64.4502" width="37.3461" height="22.7104" fill="url(#paint4_linear_646_11978)"/>
</g>
<g style="mix-blend-mode:multiply">
<rect width="37.3461" height="22.7104" transform="matrix(1 0 0 -1 31.1699 44.7676)" fill="url(#paint5_linear_646_11978)"/>
</g>
<rect x="37.7314" y="28.1133" width="0.504676" height="8.5795" fill="url(#paint6_linear_646_11978)"/>
<rect opacity="0.3" x="65.4883" y="43.2539" width="0.504676" height="8.5795" fill="url(#paint7_linear_646_11978)"/>
<rect x="57.4131" y="21.0479" width="0.504676" height="8.5795" fill="url(#paint8_linear_646_11978)"/>
<rect x="47.8242" y="41.2354" width="0.504676" height="8.5795" fill="url(#paint9_linear_646_11978)"/>
<g style="mix-blend-mode:overlay">
<rect x="59.4316" y="19.5342" width="9.08418" height="67.6266" fill="#009456"/>
</g>
<g style="mix-blend-mode:overlay">
<rect x="55.3945" y="19.5342" width="7.06547" height="25.2338" fill="url(#paint10_linear_646_11978)"/>
</g>
<g style="mix-blend-mode:overlay">
<rect x="45.8057" y="75.5527" width="7.06547" height="11.6076" fill="url(#paint11_linear_646_11978)"/>
</g>
<mask id="mask0_646_11978" style="mask-type:alpha" maskUnits="userSpaceOnUse" x="27" y="16" width="46" height="5">
<path d="M27.261 20.4181C27.3276 18.3164 29.0523 16.633 31.1702 16.633L68.5163 16.633C70.6342 16.633 72.3589 18.3164 72.4255 20.4181L27.261 20.4181Z" fill="url(#paint12_radial_646_11978)" stroke="#3D2FDB" stroke-width="0.252338"/>
</mask>
<g mask="url(#mask0_646_11978)">
<path d="M27.261 20.4181C27.3276 18.3164 29.0523 16.633 31.1702 16.633L68.5163 16.633C70.6342 16.633 72.3589 18.3164 72.4255 20.4181L27.261 20.4181Z" fill="url(#paint13_radial_646_11978)" stroke="#3D2FDB" stroke-width="0.252338"/>
<g style="mix-blend-mode:overlay">
<rect x="55.3945" y="16.5068" width="17.159" height="3.53273" fill="#096B6B"/>
</g>
<g style="mix-blend-mode:overlay">
<rect x="17.0391" y="16.5068" width="17.159" height="3.53273" fill="#34BCAC"/>
</g>
<path d="M27.261 20.4181C27.3276 18.3164 29.0523 16.633 31.1702 16.633L68.5163 16.633C70.6342 16.633 72.3589 18.3164 72.4255 20.4181L27.261 20.4181Z" stroke="#3D2FDB" stroke-width="0.252338"/>
<g style="mix-blend-mode:overlay">
<rect x="34.1982" y="16.5068" width="4.54209" height="3.53273" fill="#81E1FF"/>
</g>
<g style="mix-blend-mode:overlay">
<rect x="38.7402" y="16.5068" width="20.6917" height="3.53273" fill="#27ADD7"/>
</g>
<g style="mix-blend-mode:overlay">
<rect x="65.4883" y="16.5068" width="7.06547" height="3.53273" fill="#384D6D"/>
</g>
</g>
<mask id="mask1_646_11978" style="mask-type:alpha" maskUnits="userSpaceOnUse" x="27" y="20" width="46" height="3">
<path d="M27.259 21.0473C27.259 21.5351 27.6544 21.9305 28.1422 21.9305L71.5443 21.9305C72.0321 21.9305 72.4275 21.5351 72.4275 21.0473V20.1641L27.259 20.1641V21.0473Z" fill="url(#paint14_radial_646_11978)" stroke="#6A0624" stroke-width="0.252338"/>
</mask>
<g mask="url(#mask1_646_11978)">
<path d="M27.259 21.0473C27.259 21.5351 27.6544 21.9305 28.1422 21.9305L71.5443 21.9305C72.0321 21.9305 72.4275 21.5351 72.4275 21.0473V20.1641L27.259 20.1641V21.0473Z" fill="url(#paint15_radial_646_11978)" stroke="#6A0624" stroke-width="0.252338"/>
<g style="mix-blend-mode:overlay">
<rect x="27.1328" y="20.0381" width="7.06547" height="2.01871" fill="#41FFFF"/>
</g>
<g style="mix-blend-mode:overlay">
<rect x="34.1982" y="20.0381" width="4.54209" height="2.01871" fill="#FF96CF"/>
</g>
<g style="mix-blend-mode:overlay">
<rect x="38.7402" y="20.0381" width="16.6543" height="2.01871" fill="#1FFFAE"/>
</g>
<g style="mix-blend-mode:overlay">
<rect x="55.3945" y="20.0381" width="10.0935" height="2.01871" fill="#AF0D0D"/>
</g>
<g style="mix-blend-mode:overlay">
<rect x="62.46" y="20.0381" width="10.0935" height="2.01871" fill="#086706"/>
</g>
<path d="M27.259 21.0473C27.259 21.5351 27.6544 21.9305 28.1422 21.9305L71.5443 21.9305C72.0321 21.9305 72.4275 21.5351 72.4275 21.0473V20.1641L27.259 20.1641V21.0473Z" stroke="#6A0624" stroke-width="0.252338"/>
</g>
<mask id="mask2_646_11978" style="mask-type:alpha" maskUnits="userSpaceOnUse" x="27" y="87" width="46" height="4">
<path d="M27.259 90.0633H72.4275V89.1801C72.4275 88.1349 71.5802 87.2876 70.535 87.2876H29.1515C28.1063 87.2876 27.259 88.1349 27.259 89.1801V90.0633Z" fill="url(#paint16_radial_646_11978)" stroke="#3D2FDB" stroke-width="0.252338"/>
</mask>
<g mask="url(#mask2_646_11978)">
<path d="M27.259 90.0633H72.4275V89.1801C72.4275 88.1349 71.5802 87.2876 70.535 87.2876H29.1515C28.1063 87.2876 27.259 88.1349 27.259 89.1801V90.0633Z" fill="url(#paint17_radial_646_11978)" stroke="#3D2FDB" stroke-width="0.252338"/>
<g style="mix-blend-mode:overlay">
<rect x="61.9551" y="87.1611" width="10.5982" height="2.52338" fill="#159CD7"/>
</g>
<g style="mix-blend-mode:overlay">
<rect x="27.1328" y="87.1611" width="10.5982" height="1.51403" fill="#15D73F"/>
</g>
<g style="mix-blend-mode:overlay">
<rect x="27.1328" y="87.1611" width="21.1964" height="2.52338" fill="#15A8D7"/>
</g>
<g style="mix-blend-mode:overlay">
<rect x="45.8057" y="87.1611" width="21.1964" height="2.52338" fill="#154BD7"/>
</g>
<g style="mix-blend-mode:overlay">
<rect x="64.4785" y="87.1611" width="21.1964" height="2.52338" fill="#580F92"/>
</g>
<path d="M27.259 90.0633H72.4275V89.1801C72.4275 88.1349 71.5802 87.2876 70.535 87.2876H29.1515C28.1063 87.2876 27.259 88.1349 27.259 89.1801V90.0633Z" stroke="#3D2FDB" stroke-width="0.252338"/>
</g>
<mask id="mask3_646_11978" style="mask-type:alpha" maskUnits="userSpaceOnUse" x="24" y="89" width="52" height="4">
<path d="M24.7382 92.5855C24.8043 91.0413 26.077 89.8098 27.6374 89.8098H72.049C73.6094 89.8098 74.8821 91.0413 74.9482 92.5855H24.7382Z" fill="url(#paint18_radial_646_11978)" stroke="#6A0624" stroke-width="0.252338"/>
</mask>
<g mask="url(#mask3_646_11978)">
<path d="M24.7382 92.5855C24.8043 91.0413 26.077 89.8098 27.6374 89.8098H72.049C73.6094 89.8098 74.8821 91.0413 74.9482 92.5855H24.7382Z" fill="url(#paint19_radial_646_11978)" stroke="#6A0624" stroke-width="0.252338"/>
<g style="mix-blend-mode:overlay">
<rect x="61.9551" y="89.6836" width="13.1216" height="3.02806" fill="#C00000"/>
</g>
<g style="mix-blend-mode:overlay">
<rect x="56.4043" y="89.6836" width="13.1216" height="3.02806" fill="#E20B73"/>
</g>
<g style="mix-blend-mode:overlay">
<rect x="24.1045" y="89.6836" width="8.5795" height="3.02806" fill="#4FFF4B"/>
</g>
<g style="mix-blend-mode:overlay">
<rect x="30.665" y="89.6836" width="30.2806" height="3.02806" fill="#4B5DFF"/>
</g>
<g style="mix-blend-mode:overlay">
<rect x="24.6094" y="89.1787" width="49.4583" height="1.51403" fill="#D7FFEC"/>
</g>
<path d="M24.7382 92.5855C24.8043 91.0413 26.077 89.8098 27.6374 89.8098H72.049C73.6094 89.8098 74.8821 91.0413 74.9482 92.5855H24.7382Z" stroke="#6A0624" stroke-width="0.252338"/>
</g>
<mask id="mask4_646_11978" style="mask-type:alpha" maskUnits="userSpaceOnUse" x="33" y="13" width="33" height="4">
<path d="M34.0721 16.5056V16.6318H34.1982H64.9835H65.1097V16.5056C65.1097 14.7636 63.6975 13.3514 61.9554 13.3514L37.2263 13.3514C35.4843 13.3514 34.0721 14.7636 34.0721 16.5056Z" fill="url(#paint20_linear_646_11978)" stroke="#2400FF" stroke-width="0.252338"/>
</mask>
<g mask="url(#mask4_646_11978)">
<path d="M34.0721 16.5056V16.6318H34.1982H64.9835H65.1097V16.5056C65.1097 14.7636 63.6975 13.3514 61.9554 13.3514L37.2263 13.3514C35.4843 13.3514 34.0721 14.7636 34.0721 16.5056Z" fill="url(#paint21_linear_646_11978)" stroke="#2400FF" stroke-width="0.252338"/>
<g style="mix-blend-mode:overlay">
<rect x="55.3945" y="12.9727" width="9.58885" height="3.53273" fill="#096B6B"/>
</g>
<g style="mix-blend-mode:overlay">
<rect x="27.6377" y="12.9727" width="11.1029" height="3.53273" fill="#34BCAC"/>
</g>
<g style="mix-blend-mode:overlay">
<rect x="38.7402" y="13.4775" width="3.02806" height="3.02806" fill="#81E1FF"/>
</g>
<g style="mix-blend-mode:overlay">
<rect x="41.7686" y="13.4775" width="17.6637" height="3.02806" fill="#81E1FF"/>
</g>
<path d="M34.0721 16.5056V16.6318H34.1982H64.9835H65.1097V16.5056C65.1097 14.7636 63.6975 13.3514 61.9554 13.3514L37.2263 13.3514C35.4843 13.3514 34.0721 14.7636 34.0721 16.5056Z" stroke="#2400FF" stroke-width="0.252338"/>
</g>
<circle cx="49.8435" cy="14.992" r="0.504676" fill="#39D0FF" stroke="#AAFAFF" stroke-width="0.252338"/>
<circle cx="52.8709" cy="14.992" r="0.504676" fill="#39D0FF" stroke="#AAFAFF" stroke-width="0.252338"/>
<circle cx="55.8992" cy="14.992" r="0.504676" fill="#39D0FF" stroke="#AAFAFF" stroke-width="0.252338"/>
<circle cx="46.8152" cy="14.992" r="0.504676" fill="#39D0FF" stroke="#AAFAFF" stroke-width="0.252338"/>
<circle cx="43.7869" cy="14.992" r="0.504676" fill="#39D0FF" stroke="#AAFAFF" stroke-width="0.252338"/>
<g style="mix-blend-mode:overlay">
<rect x="31.1699" y="22.0576" width="5.55144" height="65.1032" fill="#C7FDEA"/>
</g>
<g style="mix-blend-mode:overlay">
<rect x="38.7402" y="22.0576" width="1.00935" height="65.1032" fill="#FDE1C7" fill-opacity="0.62"/>
</g>
<mask id="mask5_646_11978" style="mask-type:alpha" maskUnits="userSpaceOnUse" x="44" y="7" width="11" height="7">
<path d="M44.9221 12.4686C44.9221 9.75107 47.1251 7.54804 49.8427 7.54804C52.5602 7.54804 54.7633 9.75107 54.7633 12.4686V13.3518H44.9221V12.4686Z" fill="url(#paint22_radial_646_11978)" stroke="#1C9E8F" stroke-width="0.252338"/>
</mask>
<g mask="url(#mask5_646_11978)">
<path d="M44.9221 12.4686C44.9221 9.75107 47.1251 7.54804 49.8427 7.54804C52.5602 7.54804 54.7633 9.75107 54.7633 12.4686V13.3518H44.9221V12.4686Z" fill="url(#paint23_radial_646_11978)" stroke="#1C9E8F" stroke-width="0.252338"/>
<g style="mix-blend-mode:overlay">
<circle cx="52.8704" cy="12.973" r="4.03741" fill="#E15A5A"/>
</g>
<g style="mix-blend-mode:overlay">
<circle cx="45.805" cy="6.41241" r="4.03741" fill="#BDE4CF"/>
</g>
<path d="M44.9221 12.4686C44.9221 9.75107 47.1251 7.54804 49.8427 7.54804C52.5602 7.54804 54.7633 9.75107 54.7633 12.4686V13.3518H44.9221V12.4686Z" stroke="#1C9E8F" stroke-width="0.252338"/>
</g>
<circle cx="31.0865" cy="18.4937" r="0.883184" fill="#20FB5E" stroke="black" stroke-width="0.252338"/>
<circle cx="68.4322" cy="18.4937" r="0.883184" fill="#FF629A" stroke="black" stroke-width="0.252338"/>
<rect x="75" y="26.5625" width="1.17188" height="21.0938" fill="url(#paint24_linear_646_11978)"/>
<rect opacity="0.3" x="23.4375" y="47.6562" width="0.390625" height="21.0938" fill="url(#paint25_linear_646_11978)"/>
<rect opacity="0.3" x="78.125" y="35.1562" width="0.390625" height="21.0938" fill="url(#paint26_linear_646_11978)"/>
<rect opacity="0.3" x="25.3906" y="58.2031" width="1.5625" height="21.0938" fill="url(#paint27_linear_646_11978)"/>
<defs>
<radialGradient id="paint0_radial_646_11978" cx="0" cy="0" r="1" gradientUnits="userSpaceOnUse" gradientTransform="translate(48.0469 89.7583) rotate(15.1046) scale(27.3107 353.08)">
<stop stop-color="#1EFB64"/>
<stop offset="1" stop-color="#1CAFFD"/>
</radialGradient>
<radialGradient id="paint1_radial_646_11978" cx="0" cy="0" r="1" gradientUnits="userSpaceOnUse" gradientTransform="translate(54.6374 59.4038) rotate(-119.922) scale(40.4694 51.7437)">
<stop stop-color="#F3FFCF" stop-opacity="0.11"/>
<stop offset="1" stop-color="#77FFA5" stop-opacity="0.42"/>
</radialGradient>
<radialGradient id="paint2_radial_646_11978" cx="0" cy="0" r="1" gradientUnits="userSpaceOnUse" gradientTransform="translate(48.3297 43.2544) rotate(76.8316) scale(27.4402 20.0784)">
<stop stop-color="#0FFF44"/>
<stop offset="1" stop-color="#63E3FF"/>
</radialGradient>
<radialGradient id="paint3_radial_646_11978" cx="0" cy="0" r="1" gradientUnits="userSpaceOnUse" gradientTransform="translate(60.3912 69.9664) rotate(76.8316) scale(7.63244 5.58476)">
<stop stop-color="#88F1FF"/>
<stop offset="1" stop-color="#93FF97"/>
</radialGradient>
<linearGradient id="paint4_linear_646_11978" x1="49.8429" y1="64.4502" x2="49.8429" y2="87.1606" gradientUnits="userSpaceOnUse">
<stop stop-color="#82FFCA" stop-opacity="0"/>
<stop offset="1" stop-color="#4FFF4B"/>
</linearGradient>
<linearGradient id="paint5_linear_646_11978" x1="18.673" y1="0" x2="18.673" y2="22.7104" gradientUnits="userSpaceOnUse">
<stop stop-color="#82FFCA" stop-opacity="0"/>
<stop offset="1" stop-color="#0FFFD4"/>
</linearGradient>
<linearGradient id="paint6_linear_646_11978" x1="37.9838" y1="28.1133" x2="37.9838" y2="36.6928" gradientUnits="userSpaceOnUse">
<stop stop-color="#7DFFC1"/>
<stop offset="1" stop-color="#7DFFC1" stop-opacity="0"/>
</linearGradient>
<linearGradient id="paint7_linear_646_11978" x1="65.7406" y1="43.2539" x2="65.7406" y2="51.8334" gradientUnits="userSpaceOnUse">
<stop stop-color="#7DFFC1"/>
<stop offset="1" stop-color="#7DFFC1" stop-opacity="0"/>
</linearGradient>
<linearGradient id="paint8_linear_646_11978" x1="57.6654" y1="21.0479" x2="57.6654" y2="29.6273" gradientUnits="userSpaceOnUse">
<stop stop-color="#7DFFC1"/>
<stop offset="1" stop-color="#7DFFC1" stop-opacity="0"/>
</linearGradient>
<linearGradient id="paint9_linear_646_11978" x1="48.0766" y1="41.2354" x2="48.0766" y2="49.8148" gradientUnits="userSpaceOnUse">
<stop stop-color="#7DFFC1"/>
<stop offset="1" stop-color="#7DFFC1" stop-opacity="0"/>
</linearGradient>
<linearGradient id="paint10_linear_646_11978" x1="58.9273" y1="19.5342" x2="58.9273" y2="44.768" gradientUnits="userSpaceOnUse">
<stop stop-color="#009456"/>
<stop offset="1" stop-color="#009456" stop-opacity="0"/>
</linearGradient>
<linearGradient id="paint11_linear_646_11978" x1="49.3384" y1="75.5527" x2="49.3384" y2="87.1603" gradientUnits="userSpaceOnUse">
<stop stop-color="#009456" stop-opacity="0"/>
<stop offset="1" stop-color="#009456"/>
</linearGradient>
<radialGradient id="paint12_radial_646_11978" cx="0" cy="0" r="1" gradientUnits="userSpaceOnUse" gradientTransform="translate(59.1798 20.0396) rotate(-167.661) scale(16.5315 185.98)">
<stop stop-color="#2355F4"/>
<stop offset="1" stop-color="#A5BFFF"/>
</radialGradient>
<radialGradient id="paint13_radial_646_11978" cx="0" cy="0" r="1" gradientUnits="userSpaceOnUse" gradientTransform="translate(59.1798 20.0396) rotate(-167.661) scale(16.5315 185.98)">
<stop stop-color="#2355F4"/>
<stop offset="1" stop-color="#AFC6FF"/>
</radialGradient>
<radialGradient id="paint14_radial_646_11978" cx="0" cy="0" r="1" gradientUnits="userSpaceOnUse" gradientTransform="translate(60.9461 22.0567) rotate(-175.186) scale(24.057 541.282)">
<stop stop-color="#E000BC"/>
<stop offset="1" stop-color="#E68FFF"/>
</radialGradient>
<radialGradient id="paint15_radial_646_11978" cx="0" cy="0" r="1" gradientUnits="userSpaceOnUse" gradientTransform="translate(60.9461 22.0567) rotate(-175.186) scale(24.057 541.282)">
<stop stop-color="#E000BC"/>
<stop offset="1" stop-color="#E68FFF"/>
</radialGradient>
<radialGradient id="paint16_radial_646_11978" cx="0" cy="0" r="1" gradientUnits="userSpaceOnUse" gradientTransform="translate(59.1798 87.5399) rotate(170.683) scale(16.3655 140.899)">
<stop stop-color="#2355F4"/>
<stop offset="1" stop-color="#A5BFFF"/>
</radialGradient>
<radialGradient id="paint17_radial_646_11978" cx="0" cy="0" r="1" gradientUnits="userSpaceOnUse" gradientTransform="translate(59.1798 87.5399) rotate(170.683) scale(16.3655 140.899)">
<stop stop-color="#2355F4"/>
<stop offset="1" stop-color="#A5BFFF"/>
</radialGradient>
<radialGradient id="paint18_radial_646_11978" cx="0" cy="0" r="1" gradientUnits="userSpaceOnUse" gradientTransform="translate(62.1797 89.6836) rotate(173.514) scale(26.8073 809.582)">
<stop stop-color="#E000BC"/>
<stop offset="1" stop-color="#E68FFF"/>
</radialGradient>
<radialGradient id="paint19_radial_646_11978" cx="0" cy="0" r="1" gradientUnits="userSpaceOnUse" gradientTransform="translate(62.1797 89.6836) rotate(173.514) scale(26.8073 809.582)">
<stop stop-color="#E000BC"/>
<stop offset="1" stop-color="#E68FFF"/>
</radialGradient>
<linearGradient id="paint20_linear_646_11978" x1="35.4599" y1="13.4775" x2="64.9835" y2="13.4775" gradientUnits="userSpaceOnUse">
<stop stop-color="#A9C2FF"/>
<stop offset="1" stop-color="#164AF2"/>
</linearGradient>
<linearGradient id="paint21_linear_646_11978" x1="35.4599" y1="13.4775" x2="64.9835" y2="13.4775" gradientUnits="userSpaceOnUse">
<stop stop-color="#A9C2FF"/>
<stop offset="1" stop-color="#164AF2"/>
</linearGradient>
<radialGradient id="paint22_radial_646_11978" cx="0" cy="0" r="1" gradientUnits="userSpaceOnUse" gradientTransform="translate(48.3286 8.9359) rotate(52.125) scale(5.7542 9.59033)">
<stop stop-color="#97FFDA"/>
<stop offset="1" stop-color="#0BFFF0"/>
</radialGradient>
<radialGradient id="paint23_radial_646_11978" cx="0" cy="0" r="1" gradientUnits="userSpaceOnUse" gradientTransform="translate(48.3286 8.9359) rotate(52.125) scale(5.7542 9.59033)">
<stop stop-color="#97FFDA"/>
<stop offset="1" stop-color="#0BFFF0"/>
</radialGradient>
<linearGradient id="paint24_linear_646_11978" x1="75.5859" y1="26.5625" x2="75.5859" y2="47.6562" gradientUnits="userSpaceOnUse">
<stop stop-color="#00FFAA"/>
<stop offset="1" stop-color="#EFFFF0" stop-opacity="0"/>
</linearGradient>
<linearGradient id="paint25_linear_646_11978" x1="23.6328" y1="47.6562" x2="23.6328" y2="68.75" gradientUnits="userSpaceOnUse">
<stop stop-color="#00FFAA"/>
<stop offset="1" stop-color="#EFFFF0" stop-opacity="0"/>
</linearGradient>
<linearGradient id="paint26_linear_646_11978" x1="78.3203" y1="35.1562" x2="78.3203" y2="56.25" gradientUnits="userSpaceOnUse">
<stop stop-color="#00FFAA"/>
<stop offset="1" stop-color="#EFFFF0" stop-opacity="0"/>
</linearGradient>
<linearGradient id="paint27_linear_646_11978" x1="26.1719" y1="58.2031" x2="26.1719" y2="79.2969" gradientUnits="userSpaceOnUse">
<stop stop-color="#00FFAA"/>
<stop offset="1" stop-color="#EFFFF0" stop-opacity="0"/>
</linearGradient>
</defs>
</svg>
