<svg width="100" height="100" viewBox="0 0 100 100" fill="none" xmlns="http://www.w3.org/2000/svg">
<rect width="100" height="100" fill="white"/>
<g opacity="0.3">
<ellipse opacity="0.3" cx="49.4318" cy="91.4062" rx="35.3693" ry="4.6875" fill="url(#paint0_radial_646_11988)"/>
<g style="mix-blend-mode:overlay">
<ellipse cx="49.2189" cy="91.1936" rx="28.3381" ry="1.49148" fill="#02193D"/>
</g>
</g>
<rect x="39.8242" y="55.0463" width="4.49219" height="9.96094" transform="rotate(45 39.8242 55.0463)" fill="url(#paint1_radial_646_11988)" stroke="black" stroke-width="0.195312"/>
<rect y="0.138107" width="4.49219" height="9.96094" transform="matrix(-0.707107 0.707107 0.707107 0.707107 60.6387 54.728)" fill="url(#paint2_radial_646_11988)" stroke="black" stroke-width="0.195312"/>
<mask id="mask0_646_11988" style="mask-type:alpha" maskUnits="userSpaceOnUse" x="21" y="18" width="58" height="2">
<rect x="21.1914" y="18.457" width="57.6172" height="1.36719" fill="url(#paint3_radial_646_11988)" stroke="black" stroke-width="0.195312"/>
</mask>
<g mask="url(#mask0_646_11988)">
<rect x="21.1914" y="18.457" width="57.6172" height="1.36719" fill="url(#paint4_radial_646_11988)" stroke="black" stroke-width="0.195312"/>
<rect x="60.1562" y="18.75" width="18.75" height="1.17188" fill="#B30BA2"/>
<rect x="21.0938" y="18.3594" width="57.8125" height="0.78125" fill="#7DFFE0"/>
<rect x="21.1914" y="18.457" width="57.6172" height="1.36719" stroke="black" stroke-width="0.195312"/>
</g>
<mask id="mask1_646_11988" style="mask-type:alpha" maskUnits="userSpaceOnUse" x="22" y="15" width="56" height="4">
<path d="M22.7555 18.2617C22.807 16.635 24.142 15.332 25.7812 15.332L74.2188 15.332C75.858 15.332 77.193 16.635 77.2445 18.2617H22.7555Z" fill="url(#paint5_radial_646_11988)" stroke="black" stroke-width="0.195312"/>
</mask>
<g mask="url(#mask1_646_11988)">
<path d="M22.7555 18.2617C22.807 16.635 24.142 15.332 25.7812 15.332L74.2188 15.332C75.858 15.332 77.193 16.635 77.2445 18.2617H22.7555Z" fill="url(#paint6_radial_646_11988)" stroke="black" stroke-width="0.195312"/>
<rect opacity="0.8" x="19.9219" y="15.2344" width="10.1562" height="3.125" fill="#AFFFFA"/>
<rect opacity="0.8" x="28.125" y="15.2344" width="10.1562" height="3.125" fill="#40FFC6"/>
<rect opacity="0.8" x="58.2031" y="15.2344" width="20.7031" height="3.125" fill="#5A6BFF"/>
<rect opacity="0.8" x="53.9062" y="15.2344" width="16.0156" height="3.125" fill="#5289F3"/>
<g style="mix-blend-mode:overlay">
<rect x="69.5312" y="15.2344" width="17.1875" height="3.125" fill="#0A56C9"/>
</g>
<rect opacity="0.8" x="22.6562" y="14.8438" width="55.0781" height="1.5625" fill="#D2FFCB"/>
<path d="M22.7555 18.2617C22.807 16.635 24.142 15.332 25.7812 15.332L74.2188 15.332C75.858 15.332 77.193 16.635 77.2445 18.2617H22.7555Z" stroke="black" stroke-width="0.195312"/>
</g>
<mask id="mask2_646_11988" style="mask-type:alpha" maskUnits="userSpaceOnUse" x="41" y="12" width="18" height="4">
<path d="M41.8961 15.1367C41.9476 13.51 43.2826 12.207 44.9219 12.207H55.0781C56.7174 12.207 58.0524 13.51 58.1039 15.1367H41.8961Z" fill="url(#paint7_radial_646_11988)" stroke="black" stroke-width="0.195312"/>
</mask>
<g mask="url(#mask2_646_11988)">
<path d="M41.8961 15.1367C41.9476 13.51 43.2826 12.207 44.9219 12.207H55.0781C56.7174 12.207 58.0524 13.51 58.1039 15.1367H41.8961Z" fill="url(#paint8_radial_646_11988)" stroke="black" stroke-width="0.195312"/>
<g style="mix-blend-mode:multiply">
<rect x="53.9062" y="12.1094" width="4.6875" height="3.125" fill="#CC61FF"/>
</g>
<g style="mix-blend-mode:overlay">
<rect x="40.625" y="12.1094" width="4.6875" height="3.125" fill="#BAFFAE"/>
</g>
<g style="mix-blend-mode:overlay">
<rect x="49.6094" y="12.1094" width="6.25" height="3.125" fill="#6FACE4"/>
</g>
<g style="mix-blend-mode:overlay">
<rect x="41.7969" y="12.1094" width="16.7969" height="0.78125" fill="#C5FFED"/>
</g>
<path d="M41.8961 15.1367C41.9476 13.51 43.2826 12.207 44.9219 12.207H55.0781C56.7174 12.207 58.0524 13.51 58.1039 15.1367H41.8961Z" stroke="black" stroke-width="0.195312"/>
</g>
<mask id="mask3_646_11988" style="mask-type:alpha" maskUnits="userSpaceOnUse" x="22" y="19" width="56" height="73">
<path fill-rule="evenodd" clip-rule="evenodd" d="M77.3438 19.9219H22.6562V29.6875L50 55.8594L77.3438 29.6875V19.9219ZM77.3438 46.0938L50 72.2656L22.6562 46.0938V65.0391L50 91.2109L77.3438 65.0391V46.0938Z" fill="url(#paint9_radial_646_11988)"/>
</mask>
<g mask="url(#mask3_646_11988)">
<path fill-rule="evenodd" clip-rule="evenodd" d="M77.3438 19.9219H22.6562V29.6875L50 55.8594L77.3438 29.6875V19.9219ZM77.3438 46.0938L50 72.2656L22.6562 46.0938V65.0391L50 91.2109L77.3438 65.0391V46.0938Z" fill="url(#paint10_radial_646_11988)"/>
<g style="mix-blend-mode:overlay">
<rect x="22.6562" y="19.9219" width="0.78125" height="51.1719" fill="#FF1818"/>
</g>
<g style="mix-blend-mode:overlay">
<rect x="75.7812" y="19.9219" width="1.5625" height="51.1719" fill="#4409C2"/>
</g>
<rect x="75.7812" y="19.9219" width="1.5625" height="5.85938" fill="url(#paint11_linear_646_11988)"/>
<rect width="1.5625" height="12.5" transform="matrix(1 0 0 -1 75.7812 66.4062)" fill="url(#paint12_linear_646_11988)"/>
</g>
<path d="M49.9323 75.2657L50 75.3307L50.0677 75.2657L74.9023 51.4012V64.0209L50 87.9505L25.0977 64.0209V51.4012L49.9323 75.2657Z" fill="url(#paint13_radial_646_11988)" stroke="black" stroke-width="0.195312"/>
<path d="M50 52.5984L25.0977 28.4743V22.3633H74.9023V28.4743L50 52.5984Z" fill="url(#paint14_radial_646_11988)" stroke="black" stroke-width="0.195312"/>
<path fill-rule="evenodd" clip-rule="evenodd" d="M50 72.536L22.8516 46.5511V64.9556L50 90.9406L77.1484 64.9556V46.5511L50 72.536ZM77.3438 46.0938V65.0391L50 91.2109L22.6562 65.0391V46.0938L50 72.2656L77.3438 46.0938ZM77.1484 20.1172H22.8516V29.6041L50 55.589L77.1484 29.6041V20.1172ZM77.3438 29.6875L50 55.8594L22.6562 29.6875V19.9219H77.3438V29.6875Z" fill="black"/>
<circle cx="50" cy="50" r="13.6719" fill="url(#paint15_radial_646_11988)"/>
<circle cx="50" cy="50" r="13.5457" stroke="#009962" stroke-opacity="0.58" stroke-width="0.252338"/>
<circle cx="50" cy="50" r="12.6262" fill="white"/>
<circle cx="50" cy="50" r="12.6262" fill="url(#paint16_radial_646_11988)"/>
<circle cx="50" cy="50" r="12.6262" stroke="#72BBAE" stroke-width="0.252338"/>
<g style="mix-blend-mode:multiply" filter="url(#filter0_f_646_11988)">
<ellipse cx="50" cy="53.7109" rx="12.5" ry="8.78906" fill="url(#paint17_linear_646_11988)"/>
</g>
<g style="mix-blend-mode:multiply" filter="url(#filter1_f_646_11988)">
<ellipse rx="12.5" ry="8.78906" transform="matrix(1 0 0 -1 50 45.1172)" fill="url(#paint18_linear_646_11988)"/>
</g>
<circle cx="50" cy="50" r="9.89179" fill="white"/>
<circle cx="50" cy="50" r="9.89179" fill="url(#paint19_radial_646_11988)"/>
<circle cx="50" cy="50" r="9.89179" stroke="#72BBAE" stroke-width="0.252338"/>
<path fill-rule="evenodd" clip-rule="evenodd" d="M56.2945 46.0435C56.7537 46.4995 56.7563 47.2415 56.3003 47.7007L49.3179 54.732C49.0979 54.9535 48.7985 55.0781 48.4863 55.0781C48.1741 55.0781 47.8748 54.9535 47.6548 54.732L44.481 51.536C44.0249 51.0767 44.0275 50.3348 44.4868 49.8787C44.946 49.4227 45.688 49.4252 46.144 49.8845L48.4863 52.2432L54.6372 46.0493C55.0933 45.59 55.8353 45.5874 56.2945 46.0435Z" fill="url(#paint20_radial_646_11988)"/>
<path d="M48.3968 52.3321L48.4863 52.4222L48.5759 52.3321L54.7268 46.1382C55.1337 45.7284 55.7958 45.7261 56.2056 46.133C56.6154 46.54 56.6177 47.2021 56.2107 47.6118L49.2283 54.6431C49.032 54.8408 48.7649 54.952 48.4863 54.952C48.2077 54.952 47.9406 54.8408 47.7443 54.6431L44.5705 51.4471C44.1636 51.0373 44.1659 50.3752 44.5757 49.9682C44.9854 49.5613 45.6475 49.5636 46.0545 49.9734L48.3968 52.3321Z" stroke="#009962" stroke-opacity="0.58" stroke-width="0.252338"/>
<path d="M11.5926 33.0078L11.5926 33.0632L11.6334 33.1007L28.3752 48.4835L28.4643 48.5654L28.5498 48.4798L33.2455 43.7842L33.3364 43.6933L33.2438 43.6041L11.8063 22.956L11.5926 22.7502L11.5926 23.0469L11.5926 33.0078Z" fill="white"/>
<path d="M11.5926 33.0078L11.5926 33.0632L11.6334 33.1007L28.3752 48.4835L28.4643 48.5654L28.5498 48.4798L33.2455 43.7842L33.3364 43.6933L33.2438 43.6041L11.8063 22.956L11.5926 22.7502L11.5926 23.0469L11.5926 33.0078Z" fill="url(#paint21_radial_646_11988)"/>
<path d="M11.5926 33.0078L11.5926 33.0632L11.6334 33.1007L28.3752 48.4835L28.4643 48.5654L28.5498 48.4798L33.2455 43.7842L33.3364 43.6933L33.2438 43.6041L11.8063 22.956L11.5926 22.7502L11.5926 23.0469L11.5926 33.0078Z" stroke="#72BBAE" stroke-width="0.252338"/>
<path d="M88.3605 33.0078L88.3605 33.0632L88.3197 33.1007L71.5779 48.4835L71.4888 48.5654L71.4033 48.4798L66.7077 43.7842L66.6168 43.6933L66.7094 43.6041L88.1468 22.956L88.3605 22.7502L88.3605 23.0469L88.3605 33.0078Z" fill="white"/>
<path d="M88.3605 33.0078L88.3605 33.0632L88.3197 33.1007L71.5779 48.4835L71.4888 48.5654L71.4033 48.4798L66.7077 43.7842L66.6168 43.6933L66.7094 43.6041L88.1468 22.956L88.3605 22.7502L88.3605 23.0469L88.3605 33.0078Z" fill="url(#paint22_radial_646_11988)"/>
<path d="M88.3605 33.0078L88.3605 33.0632L88.3197 33.1007L71.5779 48.4835L71.4888 48.5654L71.4033 48.4798L66.7077 43.7842L66.6168 43.6933L66.7094 43.6041L88.1468 22.956L88.3605 22.7502L88.3605 23.0469L88.3605 33.0078Z" stroke="#72BBAE" stroke-width="0.252338"/>
<path d="M11.4173 37.0202L11.202 36.8048V37.1094V55.8594V55.9116L11.2389 55.9486L16.903 61.6127L17.1184 61.828V61.5234V42.7734V42.7212L17.0814 42.6842L11.4173 37.0202Z" fill="white"/>
<path d="M11.4173 37.0202L11.202 36.8048V37.1094V55.8594V55.9116L11.2389 55.9486L16.903 61.6127L17.1184 61.828V61.5234V42.7734V42.7212L17.0814 42.6842L11.4173 37.0202Z" fill="url(#paint23_radial_646_11988)"/>
<path d="M11.4173 37.0202L11.202 36.8048V37.1094V55.8594V55.9116L11.2389 55.9486L16.903 61.6127L17.1184 61.828V61.5234V42.7734V42.7212L17.0814 42.6842L11.4173 37.0202Z" stroke="#72BBAE" stroke-width="0.252338"/>
<path d="M88.778 37.0202L88.9934 36.8048V37.1094V55.8594V55.9116L88.9564 55.9486L83.2923 61.6127L83.077 61.828V61.5234V42.7734V42.7212L83.1139 42.6842L88.778 37.0202Z" fill="white"/>
<path d="M88.778 37.0202L88.9934 36.8048V37.1094V55.8594V55.9116L88.9564 55.9486L83.2923 61.6127L83.077 61.828V61.5234V42.7734V42.7212L83.1139 42.6842L88.778 37.0202Z" fill="url(#paint24_radial_646_11988)"/>
<path d="M88.778 37.0202L88.9934 36.8048V37.1094V55.8594V55.9116L88.9564 55.9486L83.2923 61.6127L83.077 61.828V61.5234V42.7734V42.7212L83.1139 42.6842L88.778 37.0202Z" stroke="#72BBAE" stroke-width="0.252338"/>
<g style="mix-blend-mode:multiply">
<rect x="22.6562" y="19.9219" width="54.6875" height="1.17188" fill="#BA47E2"/>
</g>
<defs>
<filter id="filter0_f_646_11988" x="35.1562" y="42.5781" width="29.6875" height="22.2656" filterUnits="userSpaceOnUse" color-interpolation-filters="sRGB">
<feFlood flood-opacity="0" result="BackgroundImageFix"/>
<feBlend mode="normal" in="SourceGraphic" in2="BackgroundImageFix" result="shape"/>
<feGaussianBlur stdDeviation="1.17188" result="effect1_foregroundBlur_646_11988"/>
</filter>
<filter id="filter1_f_646_11988" x="35.1562" y="33.9844" width="29.6875" height="22.2656" filterUnits="userSpaceOnUse" color-interpolation-filters="sRGB">
<feFlood flood-opacity="0" result="BackgroundImageFix"/>
<feBlend mode="normal" in="SourceGraphic" in2="BackgroundImageFix" result="shape"/>
<feGaussianBlur stdDeviation="1.17188" result="effect1_foregroundBlur_646_11988"/>
</filter>
<radialGradient id="paint0_radial_646_11988" cx="0" cy="0" r="1" gradientUnits="userSpaceOnUse" gradientTransform="translate(46.875 88.3301) rotate(15.1046) scale(29.7935 385.179)">
<stop stop-color="#1EFB64"/>
<stop offset="1" stop-color="#1CAFFD"/>
</radialGradient>
<radialGradient id="paint1_radial_646_11988" cx="0" cy="0" r="1" gradientUnits="userSpaceOnUse" gradientTransform="translate(39.5439 55.4288) rotate(74.7663) scale(9.98655 4.60918)">
<stop stop-color="#CBB9FF"/>
<stop offset="1" stop-color="#D1BBFF"/>
</radialGradient>
<radialGradient id="paint2_radial_646_11988" cx="0" cy="0" r="1" gradientUnits="userSpaceOnUse" gradientTransform="translate(-0.280285 0.520607) rotate(74.7663) scale(9.98655 4.60918)">
<stop stop-color="#CBB9FF"/>
<stop offset="1" stop-color="#D1BBFF"/>
</radialGradient>
<radialGradient id="paint3_radial_646_11988" cx="0" cy="0" r="1" gradientUnits="userSpaceOnUse" gradientTransform="translate(28.3203 18.3595) rotate(1.76917) scale(50.6101 1872.57)">
<stop stop-color="#FF4FED"/>
<stop offset="1" stop-color="#FF44A9"/>
</radialGradient>
<radialGradient id="paint4_radial_646_11988" cx="0" cy="0" r="1" gradientUnits="userSpaceOnUse" gradientTransform="translate(28.3203 18.3595) rotate(1.76917) scale(50.6101 1872.57)">
<stop stop-color="#FF4FED"/>
<stop offset="1" stop-color="#FF44A9"/>
</radialGradient>
<radialGradient id="paint5_radial_646_11988" cx="0" cy="0" r="1" gradientUnits="userSpaceOnUse" gradientTransform="translate(36.7188 15.2343) rotate(4.39871) scale(40.745 713.038)">
<stop stop-color="#BFE0FF"/>
<stop offset="1" stop-color="#67B6FF"/>
</radialGradient>
<radialGradient id="paint6_radial_646_11988" cx="0" cy="0" r="1" gradientUnits="userSpaceOnUse" gradientTransform="translate(36.7188 15.2343) rotate(4.39871) scale(40.745 713.038)">
<stop stop-color="#BFE0FF"/>
<stop offset="1" stop-color="#67B6FF"/>
</radialGradient>
<radialGradient id="paint7_radial_646_11988" cx="0" cy="0" r="1" gradientUnits="userSpaceOnUse" gradientTransform="translate(47.6562 12.1094) rotate(18.7999) scale(9.69702 14.8083)">
<stop stop-color="#BFFFEC"/>
<stop offset="1" stop-color="#36F5BC"/>
</radialGradient>
<radialGradient id="paint8_radial_646_11988" cx="0" cy="0" r="1" gradientUnits="userSpaceOnUse" gradientTransform="translate(47.6562 12.1094) rotate(18.7999) scale(9.69702 14.8083)">
<stop stop-color="#BFFFEC"/>
<stop offset="1" stop-color="#36F5BC"/>
</radialGradient>
<radialGradient id="paint9_radial_646_11988" cx="0" cy="0" r="1" gradientUnits="userSpaceOnUse" gradientTransform="translate(25.3906 19.9219) rotate(54.924) scale(87.3475 67.0063)">
<stop stop-color="#FFBEF9"/>
<stop offset="1" stop-color="#FF6ABB"/>
</radialGradient>
<radialGradient id="paint10_radial_646_11988" cx="0" cy="0" r="1" gradientUnits="userSpaceOnUse" gradientTransform="translate(25.3906 19.9219) rotate(54.924) scale(87.3475 67.0063)">
<stop stop-color="#FFBEF9"/>
<stop offset="1" stop-color="#FF6ABB"/>
</radialGradient>
<linearGradient id="paint11_linear_646_11988" x1="76.5625" y1="19.9219" x2="76.5625" y2="25.7812" gradientUnits="userSpaceOnUse">
<stop stop-color="#7C5BFF"/>
<stop offset="1" stop-color="#7C5BFF" stop-opacity="0"/>
</linearGradient>
<linearGradient id="paint12_linear_646_11988" x1="0.78125" y1="0" x2="0.78125" y2="12.5" gradientUnits="userSpaceOnUse">
<stop stop-color="#7C5BFF"/>
<stop offset="1" stop-color="#7C5BFF" stop-opacity="0"/>
</linearGradient>
<radialGradient id="paint13_radial_646_11988" cx="0" cy="0" r="1" gradientUnits="userSpaceOnUse" gradientTransform="translate(31.6406 57.4219) rotate(42.7372) scale(45.4726 61.5925)">
<stop stop-color="#75FFCD"/>
<stop offset="0.995943" stop-color="#69C9FF"/>
</radialGradient>
<radialGradient id="paint14_radial_646_11988" cx="0" cy="0" r="1" gradientUnits="userSpaceOnUse" gradientTransform="translate(29.2969 23.4375) rotate(40.2058) scale(42.9634 70.5041)">
<stop stop-color="#67FFE4"/>
<stop offset="1" stop-color="#98FFA2"/>
</radialGradient>
<radialGradient id="paint15_radial_646_11988" cx="0" cy="0" r="1" gradientUnits="userSpaceOnUse" gradientTransform="translate(50.9747 41.3682) rotate(92.5024) scale(22.3249 22.3052)">
<stop stop-color="#0FFF44"/>
<stop offset="1" stop-color="#63E3FF"/>
</radialGradient>
<radialGradient id="paint16_radial_646_11988" cx="0" cy="0" r="1" gradientUnits="userSpaceOnUse" gradientTransform="translate(53.2095 52.1617) rotate(-135.969) scale(18.7958 27.7776)">
<stop stop-color="#F3FFCF" stop-opacity="0.11"/>
<stop offset="1" stop-color="#77FFA5" stop-opacity="0.42"/>
</radialGradient>
<linearGradient id="paint17_linear_646_11988" x1="50" y1="44.9219" x2="50" y2="62.5" gradientUnits="userSpaceOnUse">
<stop stop-color="#82FFCA" stop-opacity="0"/>
<stop offset="1" stop-color="#4FFF4B"/>
</linearGradient>
<linearGradient id="paint18_linear_646_11988" x1="12.5" y1="0" x2="12.5" y2="17.5781" gradientUnits="userSpaceOnUse">
<stop stop-color="#82FFCA" stop-opacity="0"/>
<stop offset="1" stop-color="#4FFF4B"/>
</linearGradient>
<radialGradient id="paint19_radial_646_11988" cx="0" cy="0" r="1" gradientUnits="userSpaceOnUse" gradientTransform="translate(52.5074 51.6888) rotate(-135.969) scale(14.6842 21.7013)">
<stop stop-color="#F3FFCF" stop-opacity="0.11"/>
<stop offset="1" stop-color="#77FFA5" stop-opacity="0.42"/>
</radialGradient>
<radialGradient id="paint20_radial_646_11988" cx="0" cy="0" r="1" gradientUnits="userSpaceOnUse" gradientTransform="translate(50.8362 47.4312) rotate(93.3349) scale(7.65993 10.1891)">
<stop stop-color="#0FFF44"/>
<stop offset="1" stop-color="#63E3FF"/>
</radialGradient>
<radialGradient id="paint21_radial_646_11988" cx="0" cy="0" r="1" gradientUnits="userSpaceOnUse" gradientTransform="translate(22.4568 36.9906) rotate(-149.801) scale(16.0845 11.7488)">
<stop stop-color="#F3FFCF" stop-opacity="0.11"/>
<stop offset="1" stop-color="#77FFA5" stop-opacity="0.42"/>
</radialGradient>
<radialGradient id="paint22_radial_646_11988" cx="0" cy="0" r="1" gradientUnits="userSpaceOnUse" gradientTransform="translate(77.4963 36.9906) rotate(-30.199) scale(16.0845 11.7488)">
<stop stop-color="#F3FFCF" stop-opacity="0.11"/>
<stop offset="1" stop-color="#77FFA5" stop-opacity="0.42"/>
</radialGradient>
<radialGradient id="paint23_radial_646_11988" cx="0" cy="0" r="1" gradientUnits="userSpaceOnUse" gradientTransform="translate(14.8873 51.4274) rotate(-103.495) scale(13.12 8.80463)">
<stop stop-color="#F3FFCF" stop-opacity="0.11"/>
<stop offset="1" stop-color="#77FFA5" stop-opacity="0.42"/>
</radialGradient>
<radialGradient id="paint24_radial_646_11988" cx="0" cy="0" r="1" gradientUnits="userSpaceOnUse" gradientTransform="translate(85.308 51.4274) rotate(-76.5051) scale(13.12 8.80463)">
<stop stop-color="#F3FFCF" stop-opacity="0.11"/>
<stop offset="1" stop-color="#77FFA5" stop-opacity="0.42"/>
</radialGradient>
</defs>
</svg>
